# Blender v2.81 (sub 16) OBJ File: 'orange_boat_foresail.blend'
# www.blender.org
mtllib orange_boat_foresail.mtl
o sailboat.1_Mesh_0
v -0.016921 0.015371 4.299323
v -0.016921 0.003084 4.290188
v 0.011656 0.003084 4.290188
v 0.011656 0.015371 4.299323
v -0.027747 0.014538 4.287612
v -0.012680 14.455215 0.000276
v -0.027747 14.440149 0.000276
v -0.016921 0.003084 4.290188
v -0.027747 0.010467 0.000265
v -0.016662 -0.000618 0.000265
v 0.011656 0.015371 4.299323
v 0.022482 0.014538 4.287612
v 0.022482 14.440149 0.000276
v 0.007415 14.455215 0.000276
v 0.011656 0.003084 4.290188
v 0.011397 -0.000618 0.000265
v 0.022482 0.010467 0.000265
v 0.011397 -0.000618 0.000265
v 0.011656 0.003084 4.290188
v 0.007415 14.455215 0.000276
vt 0.245632 0.010888
vt 0.245920 0.010113
vt 0.247372 0.010627
vt 0.247149 0.011381
vt 0.244753 0.009199
vt 0.007399 0.810651
vt 0.006796 0.809631
vt 0.244912 0.008330
vt 0.006796 0.009199
vt 0.006796 0.008330
vt 0.245632 0.010888
vt 0.244754 0.009199
vt 0.006796 0.809632
vt 0.007400 0.810652
vt 0.244912 0.008330
vt 0.006796 0.008330
vt 0.006797 0.009199
vt 0.006796 0.006776
vt 0.244940 0.006776
vt 0.008467 0.810976
vn -0.1930 0.2793 0.9406
vn -0.2560 -0.9667 0.0031
vn 0.2560 -0.9667 0.0032
vn 0.1930 0.2793 0.9406
vn -1.0000 0.0004 0.0081
vn -0.1318 0.2828 0.9501
vn -0.9988 0.0139 0.0469
vn -0.2560 -0.9667 0.0032
vn -1.0000 -0.0015 0.0002
vn -0.2757 -0.9612 0.0008
vn 0.1930 0.2792 0.9406
vn 1.0000 0.0003 0.0081
vn 0.9988 0.0139 0.0469
vn 0.1317 0.2828 0.9501
vn 0.2757 -0.9612 0.0006
vn 1.0000 -0.0015 0.0004
vn 0.2757 -0.9612 0.0008
vn 0.1318 0.2829 0.9501
usemtl Material_0
s 1
f 1/1/1 2/2/2 3/3/3
f 3/3/3 4/4/4 1/1/1
f 5/5/5 1/1/1 6/6/6
f 6/6/6 7/7/7 5/5/5
f 8/8/8 5/5/5 9/9/9
f 9/9/9 10/10/10 8/8/8
f 11/11/11 12/12/12 13/13/13
f 13/13/13 14/14/14 11/11/11
f 12/12/12 15/15/3 16/16/15
f 16/16/15 17/17/16 12/12/12
f 13/13/13 12/12/12 17/17/16
f 9/9/9 5/5/5 7/7/7
f 8/8/8 10/10/10 18/18/17
f 18/18/17 19/19/3 8/8/8
f 4/4/4 20/20/18 6/6/6
f 6/6/6 1/1/1 4/4/4
f 1/1/1 5/5/5 8/8/8
f 11/11/11 15/15/3 12/12/12
